<?xml version="1.0" encoding="utf-8"?>
<!-- Generator: Adobe Illustrator 21.0.2, SVG Export Plug-In . SVG Version: 6.00 Build 0)  -->
<svg version="1.1" id="图层_1" xmlns="http://www.w3.org/2000/svg" xmlns:xlink="http://www.w3.org/1999/xlink" x="0px" y="0px"
	 viewBox="0 0 1024 1024" style="enable-background:new 0 0 1024 1024;" xml:space="preserve">
<style type="text/css">
	.st0{fill-rule:evenodd;clip-rule:evenodd;fill:#FFFFFF;}
</style>
<path class="st0" d="M717.1,171.9V69.3H310.6v102.5H5.7v129.9v523V941H1022V824.8v-523V171.9H717.1z M361.4,171.9v-51.3h304.9v51.3
	l0,0C526.7,171.9,361.4,171.9,361.4,171.9L361.4,171.9z M971.2,889.7H56.6V479.5h304.9c-3.2,8.7,0,41.1,0,51.3
	c0,63.9,51.3,119.6,152.4,119.6c106.7,0,152.5-55.7,152.5-119.6c0-10.2,3.1-42.5,0-51.3h304.9V889.7z M412.2,530.8
	c0-10.2-6.3-42.5,0-51.3h203.3c4.7,8.7,0,41.1,0,51.3c0,32-37.4,61.5-100.1,61.5C438.4,592.3,412.2,562.8,412.2,530.8L412.2,530.8z"
	/>
</svg>
