<?xml version="1.0" encoding="utf-8"?>
<!-- Generator: Adobe Illustrator 21.0.2, SVG Export Plug-In . SVG Version: 6.00 Build 0)  -->
<svg version="1.1" id="图层_1" xmlns="http://www.w3.org/2000/svg" xmlns:xlink="http://www.w3.org/1999/xlink" x="0px" y="0px"
	 viewBox="0 0 1024 1024" style="enable-background:new 0 0 1024 1024;" xml:space="preserve">
<style type="text/css">
	.st0{fill-rule:evenodd;clip-rule:evenodd;fill:#FFFFFF;}
</style>
<path class="st0" d="M784.1,915c-131.7,0-238.4-111.7-238.4-249.6c0-137.9,106.7-249.6,238.4-249.6c131.7,0,238.4,111.7,238.4,249.6
	C1022.5,803.3,915.8,915,784.1,915L784.1,915 M13.4,477.8L11,419.5l2.4-58.3h496.7l2.4,58.3l-2.4,58.3H13.4 M13.4,740.5
	c-8.8,0-2.4-58.3-2.4-58.3l2.4-58.3h389.2v116.6 M13.4,109h855.3l2.4,58.3l-2.4,58.3H13.4L11,167.3C11,167.3,13,134,13.4,109
	L13.4,109 M784.8,658.1V502.4h-74.3v248.3l37.1-14.9h171.7c0,0-3.3-77.7,0-77.7H784.8z"/>
</svg>
