<?xml version="1.0" encoding="utf-8"?>
<!-- Generator: Adobe Illustrator 21.0.2, SVG Export Plug-In . SVG Version: 6.00 Build 0)  -->
<svg version="1.1" id="图层_1" xmlns="http://www.w3.org/2000/svg" xmlns:xlink="http://www.w3.org/1999/xlink" x="0px" y="0px"
	 viewBox="0 0 1024 1024" style="enable-background:new 0 0 1024 1024;" xml:space="preserve">
<style type="text/css">
	.st0{fill-rule:evenodd;clip-rule:evenodd;fill:#FFFFFF;}
</style>
<path class="st0" d="M786.5,424.5V153.9L512.5-1l-274,154.8v270.6L1,558.7v310.5L275,1024l237.5-134.1L750,1024l274-154.8V558.7
	L786.5,424.5L786.5,424.5z M750,672.2l-163.8-92.5L750,487.2l163.8,92.5L750,672.2L750,672.2z M311.5,237.3l164.4,92.9v185
	l-164.4-92.9V237.3L311.5,237.3z M549,515.2v-185l164.4-92.9v185L549,515.2L549,515.2z M438.8,579.7L275,672.2l-163.8-92.5
	L275,487.2L438.8,579.7L438.8,579.7z M311.5,735l164.4-92.9v185l-164.4,92.8V735L311.5,735z M676.2,174.9l-163.7,92.5l-163.7-92.5
	l163.7-92.5L676.2,174.9L676.2,174.9z M74,642.1L238.4,735v185L74,827.1V642.1L74,642.1z M549,642.1L713.4,735v185L549,827.1V642.1
	L549,642.1z M786.5,919.9V735l164.4-92.9v185L786.5,919.9L786.5,919.9z"/>
</svg>
