<?xml version="1.0" encoding="utf-8"?>
<!-- Generator: Adobe Illustrator 18.0.0, SVG Export Plug-In . SVG Version: 6.00 Build 0)  -->
<!DOCTYPE svg PUBLIC "-//W3C//DTD SVG 1.1//EN" "http://www.w3.org/Graphics/SVG/1.1/DTD/svg11.dtd">
<svg version="1.1" id="图层_1" xmlns="http://www.w3.org/2000/svg" xmlns:xlink="http://www.w3.org/1999/xlink" x="0px" y="0px"
	 viewBox="0 0 1000 1000" style="enable-background:new 0 0 1000 1000;" xml:space="preserve">
<style type="text/css">
	.st0{fill-rule:evenodd;clip-rule:evenodd;}
</style>
<g>
	<path class="st0" d="M814.303,520.58H558.011c-21.776,0-39.429,17.655-39.429,39.429v256.292c0,21.773,17.653,39.428,39.429,39.428
		h256.292c21.774,0,39.429-17.655,39.429-39.428V560.009C853.732,538.235,836.077,520.58,814.303,520.58L814.303,520.58z
		 M814.303,816.302H558.011V560.009h256.292V816.302L814.303,816.302z M439.722,520.58H183.43c-21.774,0-39.43,17.655-39.43,39.429
		v256.292c0,21.773,17.655,39.428,39.43,39.428h256.292c21.775,0,39.43-17.655,39.43-39.428V560.009
		C479.152,538.235,461.497,520.58,439.722,520.58L439.722,520.58z M439.722,816.302H183.43V560.009h256.292V816.302L439.722,816.302
		z M814.303,146H558.011c-21.776,0-39.429,17.655-39.429,39.43v256.29c0,21.776,17.653,39.43,39.429,39.43h256.292
		c21.774,0,39.429-17.654,39.429-39.43V185.43C853.732,163.655,836.077,146,814.303,146L814.303,146z M814.303,441.72H558.011
		V185.43h256.292V441.72L814.303,441.72z M439.722,146H183.43c-21.774,0-39.43,17.655-39.43,39.43v256.29
		c0,21.776,17.655,39.43,39.43,39.43h256.292c21.775,0,39.43-17.654,39.43-39.43V185.43C479.152,163.655,461.497,146,439.722,146
		L439.722,146z M439.722,441.72H183.43V185.43h256.292V441.72L439.722,441.72z"/>
</g>
</svg>
