<?xml version="1.0" encoding="utf-8"?>
<!-- Generator: Adobe Illustrator 18.0.0, SVG Export Plug-In . SVG Version: 6.00 Build 0)  -->
<!DOCTYPE svg PUBLIC "-//W3C//DTD SVG 1.1//EN" "http://www.w3.org/Graphics/SVG/1.1/DTD/svg11.dtd">
<svg version="1.1" id="图层_1" xmlns="http://www.w3.org/2000/svg" xmlns:xlink="http://www.w3.org/1999/xlink" x="0px" y="0px"
	 viewBox="0 0 1000 1000" style="enable-background:new 0 0 1000 1000;" xml:space="preserve">
<style type="text/css">
	.st0{fill-rule:evenodd;clip-rule:evenodd;}
</style>
<g>
	<path class="st0" d="M90,91h102.4v102.4H90V91L90,91 M90,91L90,91z"/>
	<path class="st0" d="M346,91h563.2v102.4H346V91L346,91 M346,91L346,91z"/>
	<path class="st0" d="M90,449.4h102.4v102.4H90V449.4L90,449.4 M90,449.4L90,449.4z"/>
	<path class="st0" d="M346,449.4h563.2v102.4H346V449.4L346,449.4 M346,449.4L346,449.4z"/>
	<path class="st0" d="M90,807.8h102.4v102.4H90V807.8L90,807.8 M90,807.8L90,807.8z"/>
	<path class="st0" d="M346,807.8h563.2v102.4H346V807.8L346,807.8 M346,807.8L346,807.8z"/>
</g>
</svg>
